<?xml version="1.0" standalone="no"?><!DOCTYPE svg PUBLIC "-//W3C//DTD SVG 1.1//EN" "http://www.w3.org/Graphics/SVG/1.1/DTD/svg11.dtd"><svg t="1629099133074" class="icon" viewBox="0 0 1024 1024" version="1.1" xmlns="http://www.w3.org/2000/svg" p-id="3376" width="16" height="16" xmlns:xlink="http://www.w3.org/1999/xlink"><defs><style type="text/css"></style></defs><path d="M512 249.856c-81.55591111 0-145.63555555 64.07964445-145.63555555 145.63555555s64.07964445 145.63555555 145.63555555 145.63555556 145.63555555-64.07964445 145.63555555-145.63555556-64.07964445-145.63555555-145.63555555-145.63555555z m0 233.01688889c-49.51608889 0-87.38133333-37.86524445-87.38133333-87.38133334s37.86524445-87.38133333 87.38133333-87.38133333 87.38133333 37.86524445 87.38133333 87.38133333-37.86524445 87.38133333-87.38133333 87.38133334z m0-436.90666667C319.76106667 45.96622222 162.47466667 203.25262222 162.47466667 395.49155555c0 145.63555555 291.27111111 582.54222222 349.52533333 582.54222223s349.52533333-436.90666667 349.52533333-582.54222223c0-192.23893333-157.2864-349.52533333-349.52533333-349.52533333z m0 844.68622223c-49.51608889 0-291.27111111-372.82702222-291.27111111-495.1608889 0-160.19911111 131.072-291.27111111 291.27111111-291.2711111s291.27111111 131.072 291.27111111 291.2711111c0 119.42115555-244.66773333 495.16088889-291.27111111 495.1608889z" p-id="3377"></path></svg>