<?xml version="1.0" standalone="no"?><!DOCTYPE svg PUBLIC "-//W3C//DTD SVG 1.1//EN" "http://www.w3.org/Graphics/SVG/1.1/DTD/svg11.dtd"><svg t="1627701009817" class="icon" viewBox="0 0 1024 1024" version="1.1" xmlns="http://www.w3.org/2000/svg" p-id="3385" xmlns:xlink="http://www.w3.org/1999/xlink" width="128" height="128"><defs><style type="text/css"></style></defs><path d="M752 768h16V448h-16q-17.5 0-33.75-6T687 423.5t-25-23-24.5-27q-1-1.5-1.75-2.25t-2-2.25-2.25-2.5q-36-40.5-56-72.5-7-11-19-34-0.5-1.5-5.25-11.25t-9.25-18T532 213t-10.75-15.25T512 192q-35.5 0-57.75 15.25T432 256q0 21.5 7.5 42.25t16.5 34 16.5 27.5T480 384H192q-25 0-44.5 19.25T128 448q0 26 19 45t45 19h165.5q-7.5 8.5-12.5 23.75t-5 27.75q0 34.5 26.5 59.5-9 16-9 34.5t8.75 36.75T390 720.5q-2 12-2 28 0 42.5 24.25 63T480 832q42 0 91.5-16t97-32 83.5-16z m144-32q0-13-9.5-22.5T864 704t-22.5 9.5T832 736t9.5 22.5T864 768t22.5-9.5T896 736z m64-288v320q0 26.5-18.75 45.25T896 832H752q-29.5 0-111.5 29.5Q545.5 896 482 896q-71 0-115-38.75T323.5 748.5l0.5-2.5q-30.5-38-30.5-89 0-11 1.5-21.5-16.5-28.5-18.5-59.5H192q-52.5 0-90.25-38T64 447.5q0-51.5 38-89.5t90-38h187q-11-30-11-64 0-61 40.75-94.5T512 128q19 0 34.75 8.75t27.5 24.75T594.5 193t18.5 36 16.5 31q17.5 27.5 50 64.5 1 1.5 7 8.5t9.5 10.75 10.25 10.75 12 11.25 11.25 9 11.75 7T752 384h144q26.5 0 45.25 18.75T960 448z" p-id="3386"></path></svg>