<?xml version="1.0" standalone="no"?><!DOCTYPE svg PUBLIC "-//W3C//DTD SVG 1.1//EN" "http://www.w3.org/Graphics/SVG/1.1/DTD/svg11.dtd"><svg t="1629099162921" class="icon" viewBox="0 0 1024 1024" version="1.1" xmlns="http://www.w3.org/2000/svg" p-id="4375" xmlns:xlink="http://www.w3.org/1999/xlink" width="16" height="16"><defs><style type="text/css"></style></defs><path d="M512.504 64.054c-246.93 0-447.107 200.175-447.107 447.107s200.175 447.106 447.107 447.106c246.929 0 447.105-200.174 447.105-447.106S759.433 64.054 512.504 64.054z m275.684 722.79c-35.825 35.825-77.527 63.944-123.945 83.579-48.028 20.314-99.083 30.616-151.739 30.616-52.66 0-103.711-10.301-151.74-30.616-46.421-19.632-88.121-47.753-123.944-83.579-35.825-35.826-63.945-77.526-83.58-123.944-20.316-48.03-30.616-99.084-30.616-151.74 0-52.659 10.3-103.711 30.616-151.74 19.634-46.42 47.754-88.121 83.58-123.944 35.825-35.824 77.525-63.944 123.944-83.579 48.028-20.314 99.083-30.616 151.74-30.616 52.656 0 103.711 10.3 151.739 30.616 46.421 19.632 88.121 47.753 123.945 83.579 35.825 35.825 63.944 77.526 83.579 123.944 20.314 48.03 30.616 99.083 30.616 151.74 0 52.659-10.3 103.711-30.616 151.74-19.634 46.419-47.754 88.118-83.579 123.944z m-52.134-304.297h-194.94V231.719c0-15.804-12.812-28.611-28.611-28.611-15.804 0-28.611 12.811-28.611 28.611v308.052h252.166c15.804 0 28.611-12.811 28.611-28.611 0-15.799-12.81-28.61-28.611-28.61l-0.004-0.003z" fill="" p-id="4376"></path></svg>